<?xml version="1.0" encoding="utf-8"?>
<!-- Generator: Adobe Illustrator 15.0.0, SVG Export Plug-In . SVG Version: 6.00 Build 0)  -->
<!DOCTYPE svg PUBLIC "-//W3C//DTD SVG 1.1//EN" "http://www.w3.org/Graphics/SVG/1.1/DTD/svg11.dtd">
<svg version="1.1" id="Layer_1" xmlns="http://www.w3.org/2000/svg" xmlns:xlink="http://www.w3.org/1999/xlink" x="0px" y="0px"
	 width="15.883px" height="15.883px" viewBox="0 0 15.883 15.883" enable-background="new 0 0 15.883 15.883" xml:space="preserve">
<polygon fill="#FFFFFF" points="12.382,3.5 12.382,1 11.099,1 11.099,3.501 8.597,3.501 8.597,4.784 11.099,4.784 11.099,7.285 
	12.382,7.285 12.382,4.784 14.883,4.784 14.883,3.5 "/>
<path fill="#FFFFFF" d="M11.046,12.721c-1.459-0.615-2.723-1.134-2.723-1.134s0-0.648,0-1.103s0.745-0.94,0.745-2.821
	c0-1.808-0.84-2.803-2.173-2.878c0-0.002,0-0.006,0-0.007c-0.027,0-0.054,0.003-0.08,0.003c-0.028,0-0.054-0.003-0.081-0.003
	c0,0.001,0,0.005,0,0.007C5.402,4.86,4.562,5.855,4.562,7.663c0,1.881,0.746,2.367,0.746,2.821s0,1.103,0,1.103
	s-1.265,0.519-2.724,1.134c-1.46,0.617-1.978,1.492-1.978,1.979s0,1.005,0,1.005h6.128h0.161h6.129c0,0,0-0.519,0-1.005
	S12.505,13.338,11.046,12.721z"/>
<path display="none" fill="#FFFFFF" d="M11.474,9.382c-0.804,0-1.39,0.693-2.086,0.693c-0.693,0-3.82-3.06-3.82-3.82
	s0.695-1.129,0.695-1.91c0-0.564-2.083-3.995-2.952-3.995c-0.868,0-2.952,1.542-2.952,2.953c0,4.125,7.597,11.983,12.33,11.983
	c1.302,0,2.952-1.367,2.952-2.952C15.641,11.791,12.253,9.382,11.474,9.382"/>
</svg>
