<?xml version="1.0" encoding="utf-8"?>
<!-- Generator: Adobe Illustrator 15.0.0, SVG Export Plug-In . SVG Version: 6.00 Build 0)  -->
<!DOCTYPE svg PUBLIC "-//W3C//DTD SVG 1.1//EN" "http://www.w3.org/Graphics/SVG/1.1/DTD/svg11.dtd">
<svg version="1.1" id="Layer_1" xmlns="http://www.w3.org/2000/svg" xmlns:xlink="http://www.w3.org/1999/xlink" x="0px" y="0px"
	 width="15.883px" height="15.883px" viewBox="0 0 15.883 15.883" enable-background="new 0 0 15.883 15.883" xml:space="preserve">
<polygon display="none" fill="#FFFFFF" points="9.563,6.319 9.563,0 6.321,0 6.321,6.321 0,6.321 0,9.563 6.321,9.563 6.321,15.883 
	9.563,15.883 9.563,9.563 15.883,9.563 15.883,6.319 "/>
<path fill="#FFFFFF" d="M11.474,9.382c-0.804,0-1.39,0.693-2.086,0.693c-0.693,0-3.82-3.06-3.82-3.82s0.695-1.129,0.695-1.91
	c0-0.564-2.083-3.995-2.952-3.995c-0.868,0-2.952,1.542-2.952,2.953c0,4.125,7.597,11.983,12.33,11.983
	c1.302,0,2.952-1.367,2.952-2.952C15.641,11.791,12.253,9.382,11.474,9.382"/>
</svg>
