<?xml version="1.0" encoding="utf-8"?>
<!-- Generator: Adobe Illustrator 15.0.0, SVG Export Plug-In . SVG Version: 6.00 Build 0)  -->
<!DOCTYPE svg PUBLIC "-//W3C//DTD SVG 1.1//EN" "http://www.w3.org/Graphics/SVG/1.1/DTD/svg11.dtd">
<svg version="1.1" id="Layer_1" xmlns="http://www.w3.org/2000/svg" xmlns:xlink="http://www.w3.org/1999/xlink" x="0px" y="0px"
	 width="15.883px" height="15.883px" viewBox="0 0 15.883 15.883" enable-background="new 0 0 15.883 15.883" xml:space="preserve">
<polygon display="none" fill="#FFFFFF" points="12.382,3.5 12.382,1 11.1,1 11.1,3.501 8.598,3.501 8.598,4.784 11.1,4.784 
	11.1,7.285 12.382,7.285 12.382,4.784 14.883,4.784 14.883,3.5 "/>
<path fill="#FFFFFF" d="M8.874,7.913l-2.769-0.01h7.761V7.041l2.017,1.606l-2.017,1.61V9.396L6.145,9.357l5.313,0.019l-0.598-0.019
	H6.145C6.119,9.156,6.105,8.953,6.105,8.748c0-0.282,0.03-0.555,0.073-0.826h2.207L8.874,7.913z"/>
<path fill="#FFFFFF" d="M13.063,10.419c-1.355-0.572-2.529-1.054-2.529-1.054s0-0.602,0-1.024c0-0.422,0.692-0.873,0.692-2.621
	c0-1.679-0.781-2.604-2.019-2.673c0-0.001,0-0.006,0-0.006c-0.025,0-0.051,0.002-0.074,0.002c-0.026,0-0.051-0.002-0.076-0.002
	c0,0,0,0.005,0,0.006C7.821,3.117,7.041,4.041,7.041,5.72c0,1.748,0.693,2.198,0.693,2.621c0,0.421,0,1.024,0,1.024
	s-1.175,0.481-2.53,1.054c-1.356,0.573-1.837,1.386-1.837,1.838c0,0.453,0,0.934,0,0.934h5.692h0.15H14.9c0,0,0-0.482,0-0.934
	S14.419,10.992,13.063,10.419z"/>
<path fill="#FFFFFF" d="M10.439,10.206C8.98,9.591,7.717,9.072,7.717,9.072s0-0.647,0-1.103s0.746-0.94,0.746-2.821
	c0-1.808-0.841-2.803-2.174-2.878c0-0.002,0-0.006,0-0.007c-0.027,0-0.054,0.003-0.08,0.003c-0.028,0-0.054-0.003-0.081-0.003
	c0,0.001,0,0.005,0,0.007C4.796,2.345,3.956,3.34,3.956,5.148c0,1.881,0.746,2.366,0.746,2.821c0,0.453,0,1.103,0,1.103
	s-1.265,0.519-2.724,1.134C0.518,10.823,0,11.698,0,12.186s0,1.005,0,1.005h6.128h0.161h6.129c0,0,0-0.52,0-1.005
	C12.418,11.699,11.898,10.823,10.439,10.206z"/>
<path display="none" fill="#FFFFFF" d="M11.475,9.382c-0.805,0-1.391,0.693-2.086,0.693c-0.693,0-3.821-3.06-3.821-3.82
	c0-0.76,0.695-1.129,0.695-1.91c0-0.564-2.083-3.995-2.952-3.995c-0.868,0-2.952,1.542-2.952,2.953
	c0,4.125,7.597,11.983,12.331,11.983c1.302,0,2.951-1.367,2.951-2.952C15.641,11.791,12.253,9.382,11.475,9.382"/>
</svg>
