<?xml version="1.0" encoding="utf-8"?>
<!-- Generator: Adobe Illustrator 21.0.0, SVG Export Plug-In . SVG Version: 6.00 Build 0)  -->
<svg version="1.1" id="图层_1" xmlns="http://www.w3.org/2000/svg" xmlns:xlink="http://www.w3.org/1999/xlink" x="0px" y="0px"
	 viewBox="0 0 24 17" style="enable-background:new 0 0 24 17;" xml:space="preserve">
<style type="text/css">
	.st0{fill:#048CFE;}
</style>
<path id="email_move" class="st0" d="M12,9.9L23.2,0c-0.1,0-0.1,0-0.2,0H1C0.9,0,0.9,0,0.8,0L12,9.9z M24,1.1c0-0.1,0-0.2-0.1-0.3
	l-7.9,7l7.9,8.4c0-0.1,0-0.2,0.1-0.3V1.1L24,1.1z M0.1,0.7C0,0.8,0,1,0,1.1v14.9C0,16,0,16.1,0,16.2L8,7.8L0.1,0.7z M15.2,8.4
	L12.3,11c-0.1,0.1-0.2,0.1-0.3,0.1c-0.1,0-0.2,0-0.3-0.1L8.8,8.4l-8,8.5C0.8,17,0.9,17,1,17h22c0.1,0,0.2,0,0.2-0.1L15.2,8.4z"/>
</svg>
