<?xml version="1.0" encoding="utf-8"?>
<!-- Generator: Adobe Illustrator 21.0.0, SVG Export Plug-In . SVG Version: 6.00 Build 0)  -->
<svg version="1.1" id="图层_1" xmlns="http://www.w3.org/2000/svg" xmlns:xlink="http://www.w3.org/1999/xlink" x="0px" y="0px"
	 viewBox="0 0 22 25" style="enable-background:new 0 0 22 25;" xml:space="preserve">
<style type="text/css">
	.st0{fill:#048CFE;}
</style>
<path id="normal_" class="st0" d="M19.8,2.1l0.1,1.1c0.2,0.4,0.3,0.9,0.3,1.3C20.3,5.8,19.3,7,17.9,7c-1.3-0.1-2.3-1.2-2.3-2.5
	c0-0.5,0.1-0.9,0.3-1.3L16,2.1h-2.9L13,3.2c0.2,0.4,0.3,0.9,0.3,1.3c0.1,1.4-1,2.5-2.3,2.6C9.7,7,8.7,5.9,8.8,4.6
	c0-0.5,0.1-0.9,0.3-1.3l0.4-1.1H6.6v1.6c0.2,0.4-0.2,0.3-0.2,0.8c0,1.3-1,2.4-2.3,2.5C2.8,7,1.8,5.9,1.8,4.6c0-0.5,0.1-0.9,0.3-1.3
	V2.2H0V25h22V2.1H19.8z M20.5,23.4h-19V7.8h19.1C20.5,7.8,20.5,23.4,20.5,23.4z M18.3,14.4H3.7v2.5h14.7
	C18.3,16.8,18.3,14.4,18.3,14.4z M18.3,10.3H3.7v2.5h14.7C18.3,12.7,18.3,10.3,18.3,10.3z M18.3,18.5H3.7V21h14.7
	C18.3,20.9,18.3,18.5,18.3,18.5z M17.9,6c0.7,0,1.2-0.6,1.1-1.3V1.3c0.1-0.6-0.4-1.2-1-1.3s-1.2,0.4-1.3,1c0,0.1,0,0.2,0,0.3v3.5
	C16.8,5.4,17.3,6,17.9,6z M4.1,6c0.7,0,1.2-0.6,1.1-1.3L5.1,2.1c0-0.7,0-2.1-1-2.1S2.9,1.4,2.9,2.1v2.6C2.9,5.4,3.4,6,4.1,6L4.1,6z
	 M11,6c0.7,0,1.2-0.6,1.1-1.3V1.3c0.1-0.6-0.4-1.2-1-1.3S10,0.4,9.9,1c0,0.1,0,0.2,0,0.3v3.5C9.9,5.4,10.4,6,11,6L11,6z"/>
</svg>
