<?xml version="1.0" encoding="utf-8"?>
<!-- Generator: Adobe Illustrator 21.0.0, SVG Export Plug-In . SVG Version: 6.00 Build 0)  -->
<svg version="1.1" id="图层_1" xmlns="http://www.w3.org/2000/svg" xmlns:xlink="http://www.w3.org/1999/xlink" x="0px" y="0px"
	 viewBox="0 0 26 18" style="enable-background:new 0 0 26 18;" xml:space="preserve">
<style type="text/css">
	.st0{fill:#048CFE;}
</style>
<path id="people_move" class="st0" d="M8.5,6.3c0-0.3,0.1-0.5,0.2-0.7c0,0,0-0.1,0-0.1C8.7,5.1,8.6,4.8,8.6,4.5L8.2,4.5L7.9,4.2
	C7,3.8,6,3.8,5.1,4.3c-0.9,0.3-1.4,1.5-1,3.4c0,0.2-0.1,0.4-0.2,0.6c0,0.5,0.1,1.1,0.4,1.5c0.1,0,0.2,0.1,0.3,0.1L4.7,11
	c0.2,0.2,0.3,0.4,0.4,0.6l-0.3,0.1c-0.1,0.3-0.3,0.7-0.6,0.9l-0.6,0.2C3,13,2.2,13.4,1.6,13.6C1,13.9,0.2,14,0,14.6
	c0,0.4,0,1.5,0,2.1h3c0-0.2,0-0.4,0-0.6c0-0.4,0-0.8,0-1V15l0-0.1c0.4-0.9,1.1-1.5,2.1-1.6c0.2-0.1,0.4-0.1,0.5-0.2
	c0.4-0.2,0.8-0.3,1.1-0.5C7.4,12.3,8,12,8.5,11.8l-0.1-0.2l-0.4-0.1c0.1-0.3,0.2-0.5,0.4-0.7c0-0.3,0.1-0.6,0.1-0.9
	C8.7,9.9,8.9,9.8,9,9.7c0.1-0.2,0.2-0.4,0.2-0.5c0-0.1,0-0.2,0-0.3C8.7,8.2,8.5,7.3,8.5,6.5C8.5,6.4,8.5,6.3,8.5,6.3z M26,14.6
	c-0.2-0.6-0.9-0.7-1.6-1c-0.7-0.3-1.4-0.6-2.1-0.9l-0.6-0.2c-0.3-0.3-0.4-0.6-0.6-0.9l-0.4-0.1c0.1-0.3,0.2-0.5,0.4-0.7
	c0-0.3,0.1-0.6,0.1-0.9c0.1-0.1,0.3-0.2,0.4-0.3C21.9,9.5,22,9.3,22,9.1c0.1-0.3,0.1-0.7,0-1c-0.1-0.1-0.1-0.3-0.2-0.4
	c0-0.3,0.1-1.1,0.1-1.3c0-0.5,0-0.9-0.1-1.3c-0.1-0.2-0.2-0.4-0.3-0.5L21,4.5l-0.3-0.2c-0.9-0.4-1.9-0.4-2.8,0.1
	c-0.4,0.1-0.7,0.4-0.8,0.7c0,0.1,0,0.2,0,0.3c0,0,0,0,0,0.1l0,0c0,0.1,0.1,0.1,0.1,0.2c0.2,0.6,0.3,1.3,0.1,1.9
	c-0.1,0.4-0.2,0.7-0.4,1.1c-0.1,0.1-0.1,0.2-0.2,0.2c0,0.4,0.1,0.7,0.4,1c0.1,0,0.2,0.1,0.3,0.1c0,0.4,0.1,0.7,0.1,1.1
	c0.2,0.2,0.3,0.4,0.4,0.6l-0.3,0.1l-0.1,0.2c0.6,0.2,1.1,0.5,1.7,0.7c0.4,0.2,0.8,0.3,1.1,0.5c0.2,0.1,0.3,0.1,0.5,0.2
	c0.9,0.2,1.7,0.8,2.1,1.6l0,0.1v0.1c0,0.2,0,0.6,0,1c0,0.2,0,0.4,0,0.6h3C26.1,16.1,26,15.1,26,14.6L26,14.6z M16.3,1.7
	c0.1,0.6,0.2,1.3,0.2,1.9c0,0.3-0.1,1.4-0.1,1.8c0,0.2,0.1,0.4,0.2,0.6c0.2,0.5,0.2,1,0.1,1.4c0,0.3-0.1,0.5-0.3,0.8
	c-0.2,0.1-0.4,0.3-0.6,0.5c-0.1,0.4-0.2,0.8-0.2,1.2c-0.2,0.3-0.4,0.7-0.5,1l0.5,0.1c0.2,0.5,0.4,0.9,0.8,1.3l0.8,0.2
	c0.9,0.4,2,0.9,2.9,1.3c0.9,0.4,1.9,0.5,2.2,1.4c0,0.6,0.1,2.1,0,2.9H3.7c0-0.8,0-2.3,0-2.9c0.3-0.9,1.3-1,2.2-1.4
	c0.9-0.4,2-0.9,2.9-1.3l0.8-0.2c0.4-0.4,0.6-0.8,0.8-1.3l0.4-0.1c-0.1-0.3-0.3-0.6-0.5-0.9l-0.1-1.5c-0.1,0-0.3,0-0.4-0.1
	C9.3,8,9.3,6.7,9.3,6.2c0.1-0.3,0.2-0.6,0.2-0.9C8.9,2.7,9.7,1,10.9,0.5c1.2-0.7,2.7-0.7,3.9-0.1l0.4,0.3l0.6,0.1
	C16.1,1.1,16.2,1.4,16.3,1.7L16.3,1.7z"/>
</svg>
