<?xml version="1.0" encoding="utf-8"?>
<!-- Generator: Adobe Illustrator 15.0.0, SVG Export Plug-In . SVG Version: 6.00 Build 0)  -->
<!DOCTYPE svg PUBLIC "-//W3C//DTD SVG 1.1//EN" "http://www.w3.org/Graphics/SVG/1.1/DTD/svg11.dtd">
<svg version="1.1" xmlns="http://www.w3.org/2000/svg" xmlns:xlink="http://www.w3.org/1999/xlink" x="0px" y="0px" width="25px"
	 height="22px" viewBox="0 0 25 22" enable-background="new 0 0 25 22" xml:space="preserve">
<g id="图层_1" display="none">
	<path display="inline" fill="#576B85" d="M19.672,8.108c0,0.926-0.241,1.799-0.725,2.622c-0.482,0.821-1.14,1.538-1.975,2.144
		c-0.831,0.61-1.809,1.092-2.926,1.446c-1.12,0.355-2.319,0.535-3.599,0.535c-0.292,0-0.584-0.012-0.871-0.037
		c-0.29-0.023-0.571-0.05-0.848-0.081c-1.163,0.892-2.49,1.505-3.983,1.835c-0.158,0.033-0.318,0.063-0.479,0.092
		C4.104,16.69,3.931,16.72,3.75,16.751c-0.095,0.018-0.181-0.01-0.255-0.077c-0.076-0.068-0.128-0.14-0.16-0.218v-0.024
		c-0.031-0.097-0.02-0.171,0.035-0.232c0.055-0.058,0.127-0.128,0.214-0.207c0.143-0.142,0.278-0.286,0.408-0.431
		c0.131-0.147,0.247-0.314,0.35-0.499c0.102-0.186,0.199-0.405,0.291-0.657c0.091-0.254,0.167-0.565,0.231-0.938
		c-1.114-0.615-2-1.389-2.655-2.317c-0.657-0.929-0.984-1.942-0.984-3.042c0-0.938,0.243-1.819,0.729-2.636
		c0.486-0.818,1.145-1.533,1.979-2.14c0.834-0.607,1.808-1.09,2.922-1.446C7.97,1.53,9.168,1.352,10.448,1.352
		c1.28,0,2.479,0.179,3.599,0.534c1.117,0.356,2.095,0.839,2.926,1.446c0.835,0.607,1.492,1.322,1.975,2.14
		C19.431,6.29,19.672,7.17,19.672,8.108z M23.952,11.653c0,1.098-0.329,2.113-0.986,3.042c-0.655,0.93-1.541,1.7-2.656,2.316
		c0.063,0.372,0.142,0.686,0.228,0.937c0.088,0.254,0.188,0.472,0.301,0.66c0.116,0.184,0.233,0.351,0.357,0.496
		c0.121,0.147,0.254,0.29,0.397,0.433c0.076,0.08,0.147,0.151,0.207,0.22c0.059,0.068,0.073,0.141,0.038,0.221v0.023
		c-0.014,0.093-0.062,0.169-0.145,0.23c-0.084,0.06-0.174,0.079-0.269,0.064c-0.181-0.031-0.354-0.063-0.515-0.089
		c-0.162-0.027-0.323-0.056-0.479-0.09c-0.759-0.156-1.47-0.394-2.134-0.711c-0.666-0.314-1.279-0.691-1.852-1.127
		c-0.275,0.034-0.558,0.061-0.845,0.085c-0.292,0.021-0.581,0.036-0.871,0.036c-1.118,0-2.164-0.141-3.143-0.416
		c-0.98-0.275-1.869-0.648-2.667-1.115c0.047-0.031,0.1-0.063,0.159-0.094c0.06-0.032,0.113-0.063,0.161-0.095
		c0.402,0.046,0.805,0.07,1.208,0.07c1.557,0,3.015-0.222,4.372-0.67c1.359-0.447,2.539-1.057,3.536-1.835
		c0.996-0.778,1.78-1.695,2.352-2.748c0.574-1.05,0.859-2.182,0.859-3.39c0-0.325-0.023-0.653-0.071-0.994
		c0.759,0.617,1.358,1.308,1.796,2.072C23.729,9.956,23.952,10.778,23.952,11.653z"/>
</g>
<g id="图层_1_x5F_复制">
	<path fill="#D1E7F7" d="M19.672,8.108c0,0.926-0.241,1.799-0.725,2.622c-0.482,0.821-1.14,1.538-1.975,2.144
		c-0.831,0.61-1.809,1.092-2.926,1.446c-1.12,0.355-2.319,0.535-3.599,0.535c-0.292,0-0.584-0.012-0.871-0.037
		c-0.29-0.023-0.571-0.05-0.848-0.081c-1.163,0.892-2.49,1.505-3.983,1.835c-0.158,0.033-0.318,0.063-0.479,0.092
		C4.104,16.69,3.931,16.72,3.75,16.751c-0.095,0.018-0.181-0.01-0.255-0.077c-0.076-0.068-0.128-0.14-0.16-0.218v-0.024
		c-0.031-0.097-0.02-0.171,0.035-0.232c0.055-0.058,0.127-0.128,0.214-0.207c0.143-0.142,0.278-0.286,0.408-0.431
		c0.131-0.147,0.247-0.314,0.35-0.499c0.102-0.186,0.199-0.405,0.291-0.657c0.091-0.254,0.167-0.565,0.231-0.938
		c-1.114-0.615-2-1.389-2.655-2.317c-0.657-0.929-0.984-1.942-0.984-3.042c0-0.938,0.243-1.819,0.729-2.636
		c0.486-0.818,1.145-1.533,1.979-2.14c0.834-0.607,1.808-1.09,2.922-1.446C7.97,1.53,9.168,1.352,10.448,1.352
		c1.28,0,2.479,0.179,3.599,0.534c1.117,0.356,2.095,0.839,2.926,1.446c0.835,0.607,1.492,1.322,1.975,2.14
		C19.431,6.29,19.672,7.17,19.672,8.108z M23.952,11.653c0,1.098-0.329,2.113-0.986,3.042c-0.655,0.93-1.541,1.7-2.656,2.316
		c0.063,0.372,0.142,0.686,0.228,0.937c0.088,0.254,0.188,0.472,0.301,0.66c0.116,0.184,0.233,0.351,0.357,0.496
		c0.121,0.147,0.254,0.29,0.397,0.433c0.076,0.08,0.147,0.151,0.207,0.22c0.059,0.068,0.073,0.141,0.038,0.221v0.023
		c-0.014,0.093-0.062,0.169-0.145,0.23c-0.084,0.06-0.174,0.079-0.269,0.064c-0.181-0.031-0.354-0.063-0.515-0.089
		c-0.162-0.027-0.323-0.056-0.479-0.09c-0.759-0.156-1.47-0.394-2.134-0.711c-0.666-0.314-1.279-0.691-1.852-1.127
		c-0.275,0.034-0.558,0.061-0.845,0.085c-0.292,0.021-0.581,0.036-0.871,0.036c-1.118,0-2.164-0.141-3.143-0.416
		c-0.98-0.275-1.869-0.648-2.667-1.115c0.047-0.031,0.1-0.063,0.159-0.094c0.06-0.032,0.113-0.063,0.161-0.095
		c0.402,0.046,0.805,0.07,1.208,0.07c1.557,0,3.015-0.222,4.372-0.67c1.359-0.447,2.539-1.057,3.536-1.835
		c0.996-0.778,1.78-1.695,2.352-2.748c0.574-1.05,0.859-2.182,0.859-3.39c0-0.325-0.023-0.653-0.071-0.994
		c0.759,0.617,1.358,1.308,1.796,2.072C23.729,9.956,23.952,10.778,23.952,11.653z"/>
</g>
</svg>
