<?xml version="1.0" encoding="utf-8"?>
<!-- Generator: Adobe Illustrator 21.0.0, SVG Export Plug-In . SVG Version: 6.00 Build 0)  -->
<svg version="1.1" id="图层_1" xmlns="http://www.w3.org/2000/svg" xmlns:xlink="http://www.w3.org/1999/xlink" x="0px" y="0px"
	 viewBox="0 0 22 22" style="enable-background:new 0 0 22 22;" xml:space="preserve">
<style type="text/css">
	.st0{fill:#D3EAFB;}
</style>
<path id="wenjian_down" class="st0" d="M0.8,2.1L3,0H19l2.3,2.1H0.8z M0,8.3h22V2.8H0V8.3z M15.9,5.5v1h-1.1v-1H8v1H6.8V4.5h9.1
	L15.9,5.5L15.9,5.5z M0,15.1h22V9.6H0V15.1z M15.9,12.4v1h-1.1v-1H8v1H6.8v-2.1h9.1L15.9,12.4L15.9,12.4z M0,22h22v-5.5H0V22z
	 M15.9,19.3v1h-1.1v-1H8v1H6.8v-2.1h9.1L15.9,19.3L15.9,19.3z"/>
</svg>
